<svg width="25" height="25" viewBox="0 0 25 25" fill="none" xmlns="http://www.w3.org/2000/svg">
<path d="M19.6875 8.33333H5.3125C4.6875 8.33333 4.16667 8.85417 4.27083 9.47917L5.9375 23.125C6.04167 24.1667 6.97917 24.8958 8.02083 24.8958H16.875C17.9167 24.8958 18.8542 24.1667 18.9583 23.125L20.625 9.47917C20.7292 8.85417 20.3125 8.33333 19.6875 8.33333ZM20.8333 2.08333H15.625C15.625 0.9375 14.6875 0 13.5417 0H11.4583C10.3125 0 9.375 0.9375 9.375 2.08333H4.16667C3.02083 2.08333 2.08333 3.02083 2.08333 4.16667V5.20833C2.08333 5.83333 2.5 6.25 3.125 6.25H21.875C22.5 6.25 22.9167 5.83333 22.9167 5.20833V4.16667C22.9167 3.02083 21.9792 2.08333 20.8333 2.08333Z" fill="#C94515"/>
</svg>
