<svg width="25" height="25" viewBox="0 0 25 25" fill="none" xmlns="http://www.w3.org/2000/svg">
<g clip-path="url(#clip0_26_12)">
<path d="M13.9608 6.03921C14.7418 5.25817 16.0082 5.25817 16.7892 6.03921L18.9608 8.21079C19.7418 8.99184 19.7418 10.2582 18.9608 11.0392L5.58579 24.4142C5.21071 24.7893 4.70201 25 4.17157 25H2C0.89543 25 0 24.1046 0 23V20.8284C0 20.298 0.210714 19.7893 0.585786 19.4142L13.9608 6.03921ZM18.5392 4.28921C17.7582 3.50816 17.7582 2.24184 18.5392 1.46079L18.5858 1.41421C19.3668 0.633165 20.6332 0.633165 21.4142 1.41421L23.5858 3.58579C24.3668 4.36684 24.3668 5.63316 23.5858 6.41421L23.5392 6.46079C22.7582 7.24183 21.4918 7.24183 20.7108 6.46079L18.5392 4.28921Z" fill="#1D1A0C"/>
</g>
<defs>
<clipPath id="clip0_26_12">
<rect width="25" height="25" fill="white"/>
</clipPath>
</defs>
</svg>
